<mxfile host="65bd71144e">
    <diagram id="EypDn9yRw_R7bh5IcKb_" name="Page-1">
        <mxGraphModel dx="2265" dy="978" grid="1" gridSize="10" guides="1" tooltips="1" connect="1" arrows="1" fold="1" page="1" pageScale="1" pageWidth="850" pageHeight="1100" math="0" shadow="0">
            <root>
                <mxCell id="0"/>
                <mxCell id="1" parent="0"/>
                <mxCell id="2" value="Users" style="whiteSpace=wrap;html=1;align=center;" parent="1" vertex="1">
                    <mxGeometry x="90" y="230" width="100" height="40" as="geometry"/>
                </mxCell>
                <mxCell id="3" value="Dinner-menu" style="whiteSpace=wrap;html=1;align=center;" parent="1" vertex="1">
                    <mxGeometry x="120" y="640" width="100" height="40" as="geometry"/>
                </mxCell>
                <mxCell id="4" value="Lunch-menu" style="whiteSpace=wrap;html=1;align=center;" parent="1" vertex="1">
                    <mxGeometry x="350" y="400" width="100" height="40" as="geometry"/>
                </mxCell>
                <mxCell id="5" value="Take Away" style="whiteSpace=wrap;html=1;align=center;" parent="1" vertex="1">
                    <mxGeometry x="650" y="680" width="100" height="40" as="geometry"/>
                </mxCell>
                <mxCell id="12" value="&lt;u&gt;Name&lt;/u&gt;" style="ellipse;whiteSpace=wrap;html=1;align=center;" vertex="1" parent="1">
                    <mxGeometry x="20" y="560" width="100" height="40" as="geometry"/>
                </mxCell>
                <mxCell id="13" value="Price" style="ellipse;whiteSpace=wrap;html=1;align=center;" vertex="1" parent="1">
                    <mxGeometry x="100" y="510" width="100" height="40" as="geometry"/>
                </mxCell>
                <mxCell id="14" value="Vegetarian" style="ellipse;whiteSpace=wrap;html=1;align=center;" vertex="1" parent="1">
                    <mxGeometry x="310" y="580" width="100" height="40" as="geometry"/>
                </mxCell>
                <mxCell id="15" value="Vegan" style="ellipse;whiteSpace=wrap;html=1;align=center;" vertex="1" parent="1">
                    <mxGeometry x="260" y="620" width="100" height="40" as="geometry"/>
                </mxCell>
                <mxCell id="16" value="Description" style="ellipse;whiteSpace=wrap;html=1;align=center;" vertex="1" parent="1">
                    <mxGeometry x="240" y="680" width="100" height="40" as="geometry"/>
                </mxCell>
                <mxCell id="17" value="Category" style="ellipse;whiteSpace=wrap;html=1;align=center;" vertex="1" parent="1">
                    <mxGeometry x="210" y="540" width="100" height="40" as="geometry"/>
                </mxCell>
                <mxCell id="22" value="Course1" style="ellipse;whiteSpace=wrap;html=1;align=center;" vertex="1" parent="1">
                    <mxGeometry x="400" y="330" width="100" height="40" as="geometry"/>
                </mxCell>
                <mxCell id="23" value="Course2" style="ellipse;whiteSpace=wrap;html=1;align=center;" vertex="1" parent="1">
                    <mxGeometry x="460" y="370" width="100" height="40" as="geometry"/>
                </mxCell>
                <mxCell id="24" value="ID" style="ellipse;whiteSpace=wrap;html=1;align=center;fontStyle=4;" vertex="1" parent="1">
                    <mxGeometry x="510" y="660" width="100" height="40" as="geometry"/>
                </mxCell>
                <mxCell id="25" value="Course" style="ellipse;whiteSpace=wrap;html=1;align=center;" vertex="1" parent="1">
                    <mxGeometry x="570" y="600" width="100" height="40" as="geometry"/>
                </mxCell>
                <mxCell id="26" value="Day" style="ellipse;whiteSpace=wrap;html=1;align=center;fontStyle=4;" vertex="1" parent="1">
                    <mxGeometry x="280" y="320" width="100" height="40" as="geometry"/>
                </mxCell>
                <mxCell id="27" value="Category" style="ellipse;whiteSpace=wrap;html=1;align=center;" vertex="1" parent="1">
                    <mxGeometry x="680" y="620" width="100" height="40" as="geometry"/>
                </mxCell>
                <mxCell id="28" value="Price" style="ellipse;whiteSpace=wrap;html=1;align=center;" vertex="1" parent="1">
                    <mxGeometry x="770" y="690" width="100" height="40" as="geometry"/>
                </mxCell>
                <mxCell id="29" value="ID" style="ellipse;whiteSpace=wrap;html=1;align=center;fontStyle=4;" vertex="1" parent="1">
                    <mxGeometry x="-10" y="170" width="100" height="40" as="geometry"/>
                </mxCell>
                <mxCell id="30" value="username" style="ellipse;whiteSpace=wrap;html=1;align=center;" vertex="1" parent="1">
                    <mxGeometry x="50" y="120" width="100" height="40" as="geometry"/>
                </mxCell>
                <mxCell id="31" value="password" style="ellipse;whiteSpace=wrap;html=1;align=center;" vertex="1" parent="1">
                    <mxGeometry x="140" y="160" width="100" height="40" as="geometry"/>
                </mxCell>
                <mxCell id="32" value="e-mail" style="ellipse;whiteSpace=wrap;html=1;align=center;" vertex="1" parent="1">
                    <mxGeometry x="220" y="210" width="100" height="40" as="geometry"/>
                </mxCell>
            </root>
        </mxGraphModel>
    </diagram>
</mxfile>